<?xml version="1.0" encoding="utf-8"?>
<!-- Generator: Adobe Illustrator 22.1.0, SVG Export Plug-In . SVG Version: 6.00 Build 0)  -->
<svg version="1.1" id="Layer_1" xmlns="http://www.w3.org/2000/svg" xmlns:xlink="http://www.w3.org/1999/xlink" x="0px" y="0px"
	 viewBox="0 0 24.9 10.2" style="enable-background:new 0 0 24.9 10.2;" xml:space="preserve">
<style type="text/css">
	.st0{fill:#4D4D4D;}
</style>
<g id="Group_2" transform="translate(-24 -65.5)">
	<path id="Rectangle_3" class="st0" d="M24.8,65.5h16c0.4,0,0.8,0.4,0.8,0.8l0,0c0,0.4-0.4,0.8-0.8,0.8h-16c-0.4,0-0.8-0.4-0.8-0.8
		l0,0C24,65.9,24.4,65.5,24.8,65.5z"/>
	<path id="Rectangle_4" class="st0" d="M32,74.1h16c0.4,0,0.8,0.4,0.8,0.8l0,0c0,0.4-0.4,0.8-0.8,0.8H32c-0.4,0-0.8-0.4-0.8-0.8l0,0
		C31.2,74.5,31.6,74.1,32,74.1z"/>
</g>
</svg>
